<svg width="64" height="64" viewBox="0 0 64 64" fill="none" xmlns="http://www.w3.org/2000/svg">
<path d="M64 32C64 23.513 60.6286 15.3737 54.6274 9.37256C48.6262 3.3714 40.4869 -2.24177e-05 32 -2.00907e-05C23.5131 -1.77636e-05 15.3737 3.37141 9.37258 9.37257C3.37141 15.3737 -4.48384e-06 23.5131 -2.79753e-06 32L64 32Z" fill="#C5BBAD" fill-opacity="0.2"/>
<path d="M-2.79753e-06 32C9.12224e-07 40.4869 3.3714 48.6263 9.37257 54.6274C15.3737 60.6286 23.5131 64 32 64C40.4869 64 48.6262 60.6286 54.6274 54.6274C60.6286 48.6262 64 40.4869 64 32L-2.79753e-06 32Z" fill="#C5BBAD"/>
</svg>
