<svg width="64" height="64" viewBox="0 0 64 64" fill="none" xmlns="http://www.w3.org/2000/svg">
<path d="M0 32C2.22585e-06 40.487 3.37142 48.6263 9.37259 54.6274C15.3738 60.6286 23.5131 64 32 64C40.4869 64 48.6263 60.6286 54.6274 54.6274C60.6286 48.6263 64 40.4869 64 32L0 32Z" fill="#C5BBAD" fill-opacity="0.2"/>
<path d="M64 32C64 23.5131 60.6286 15.3737 54.6274 9.37258C48.6263 3.37141 40.4869 -2.32706e-06 32 0C23.5131 2.32706e-06 15.3738 3.37142 9.3726 9.37259C3.37144 15.3738 -1.68631e-06 23.5131 0 32L64 32Z" fill="#C5BBAD"/>
</svg>
