<svg width="64" height="64" viewBox="0 0 64 64" fill="none" xmlns="http://www.w3.org/2000/svg">
<path d="M0 32C7.41951e-07 40.4869 3.37142 48.6263 9.37258 54.6274C15.3737 60.6286 23.5131 64 32 64C40.4869 64 48.6263 60.6286 54.6274 54.6274C60.6286 48.6263 64 40.4869 64 32H0Z" fill="#FEC80A" fill-opacity="0.17"/>
<path d="M64 32C64 23.5131 60.6286 15.3737 54.6274 9.37258C48.6263 3.37142 40.4869 -8.43156e-07 32 0C23.5131 8.43156e-07 15.3738 3.37142 9.37259 9.37258C3.37143 15.3737 -2.02411e-07 23.5131 0 32H64Z" fill="#FEC80A"/>
</svg>
