<svg width="64" height="64" viewBox="0 0 64 64" fill="none" xmlns="http://www.w3.org/2000/svg">
<path d="M64 32C64 23.5131 60.6286 15.3737 54.6274 9.37257C48.6262 3.37141 40.4869 -5.67502e-06 32 -4.83187e-06C23.5131 -3.98871e-06 15.3737 3.37141 9.37258 9.37258C3.37142 15.3737 -2.99994e-06 23.5131 -2.79753e-06 32L64 32Z" fill="#FEC80A" fill-opacity="0.17"/>
<path d="M-2.79753e-06 32C-5.71678e-07 40.4869 3.37141 48.6263 9.37258 54.6274C15.3737 60.6286 23.5131 64 32 64C40.4869 64 48.6262 60.6286 54.6274 54.6274C60.6286 48.6263 64 40.4869 64 32L-2.79753e-06 32Z" fill="#FEC80A"/>
</svg>
